<mxfile host="app.diagrams.net" modified="2021-11-05T03:13:08.613Z" agent="5.0 (Windows NT 10.0; Win64; x64) AppleWebKit/537.36 (KHTML, like Gecko) Chrome/95.0.4638.69 Safari/537.36" etag="YHv1JTt-hzVzMbfDwp7U" version="14.9.0" type="github">
  <diagram id="SsnAZ5wC161x5WrOmtPc" name="Page-1">
    <mxGraphModel dx="1865" dy="547" grid="1" gridSize="10" guides="1" tooltips="1" connect="1" arrows="1" fold="1" page="1" pageScale="1" pageWidth="827" pageHeight="1169" math="0" shadow="0">
      <root>
        <mxCell id="0" />
        <mxCell id="1" parent="0" />
        <mxCell id="BKRWEqYOWtrj8TtzubW4-2" value="" style="endArrow=classic;html=1;" edge="1" parent="1">
          <mxGeometry width="50" height="50" relative="1" as="geometry">
            <mxPoint x="160" y="100" as="sourcePoint" />
            <mxPoint x="160" y="480" as="targetPoint" />
          </mxGeometry>
        </mxCell>
        <mxCell id="BKRWEqYOWtrj8TtzubW4-3" value="" style="endArrow=classic;html=1;" edge="1" parent="1">
          <mxGeometry width="50" height="50" relative="1" as="geometry">
            <mxPoint x="450" y="100" as="sourcePoint" />
            <mxPoint x="450" y="480" as="targetPoint" />
          </mxGeometry>
        </mxCell>
        <mxCell id="BKRWEqYOWtrj8TtzubW4-4" value="公司A" style="text;html=1;strokeColor=none;fillColor=none;align=center;verticalAlign=middle;whiteSpace=wrap;rounded=0;" vertex="1" parent="1">
          <mxGeometry x="90" y="80" width="40" height="20" as="geometry" />
        </mxCell>
        <mxCell id="BKRWEqYOWtrj8TtzubW4-5" value="公司B" style="text;html=1;strokeColor=none;fillColor=none;align=center;verticalAlign=middle;whiteSpace=wrap;rounded=0;" vertex="1" parent="1">
          <mxGeometry x="480" y="80" width="40" height="20" as="geometry" />
        </mxCell>
        <mxCell id="BKRWEqYOWtrj8TtzubW4-7" value="场景：公司A向公司B发起连接请求" style="text;html=1;strokeColor=none;fillColor=none;align=center;verticalAlign=middle;whiteSpace=wrap;rounded=0;" vertex="1" parent="1">
          <mxGeometry x="204" y="20" width="210" height="20" as="geometry" />
        </mxCell>
        <mxCell id="BKRWEqYOWtrj8TtzubW4-8" value="" style="endArrow=classic;html=1;" edge="1" parent="1">
          <mxGeometry width="50" height="50" relative="1" as="geometry">
            <mxPoint x="160" y="120" as="sourcePoint" />
            <mxPoint x="450" y="120" as="targetPoint" />
          </mxGeometry>
        </mxCell>
        <mxCell id="BKRWEqYOWtrj8TtzubW4-11" value="① 公司A发送自己的license" style="text;html=1;align=center;verticalAlign=middle;resizable=0;points=[];autosize=1;strokeColor=none;" vertex="1" parent="1">
          <mxGeometry x="220" y="90" width="160" height="20" as="geometry" />
        </mxCell>
        <mxCell id="BKRWEqYOWtrj8TtzubW4-12" value="② 公司B校验A的license，并生成对称加密的秘钥S&lt;br&gt;流程：&lt;br&gt;1，公司B 使用SPK对 license密文部分进行解密，与明文部分比对&lt;br&gt;&amp;nbsp; &amp;nbsp; &amp;nbsp; 相同表示公司可信。&lt;br&gt;2， 校验license中的公司信息，确定是要与自己联邦的公司&lt;br&gt;3， 就本次通信请求生成随机秘钥S&lt;br&gt;4， 获取license中的APK， 使用APK对S进行加密得到S&#39;&lt;br&gt;&lt;br&gt;&lt;div&gt;&lt;br&gt;&lt;/div&gt;" style="text;html=1;align=left;verticalAlign=middle;resizable=0;points=[];autosize=1;strokeColor=none;" vertex="1" parent="1">
          <mxGeometry x="460" y="160" width="360" height="130" as="geometry" />
        </mxCell>
        <mxCell id="BKRWEqYOWtrj8TtzubW4-13" value="" style="endArrow=classic;html=1;" edge="1" parent="1">
          <mxGeometry width="50" height="50" relative="1" as="geometry">
            <mxPoint x="450" y="320" as="sourcePoint" />
            <mxPoint x="160" y="320" as="targetPoint" />
          </mxGeometry>
        </mxCell>
        <mxCell id="BKRWEqYOWtrj8TtzubW4-14" value="③&amp;nbsp; 将s&#39;发送给公司A" style="text;html=1;align=center;verticalAlign=middle;resizable=0;points=[];autosize=1;strokeColor=none;" vertex="1" parent="1">
          <mxGeometry x="220" y="300" width="120" height="20" as="geometry" />
        </mxCell>
        <mxCell id="BKRWEqYOWtrj8TtzubW4-15" value="④ 公司A使用APRK解密s&#39; 得到S&lt;br&gt;此后双方开始使用秘钥S进行对称加密通信" style="text;html=1;align=left;verticalAlign=middle;resizable=0;points=[];autosize=1;strokeColor=none;" vertex="1" parent="1">
          <mxGeometry x="-40" y="380" width="240" height="30" as="geometry" />
        </mxCell>
      </root>
    </mxGraphModel>
  </diagram>
</mxfile>
